<mxfile host="Electron" modified="2023-11-28T09:29:01.702Z" agent="Mozilla/5.0 (Macintosh; Intel Mac OS X 10_15_7) AppleWebKit/537.36 (KHTML, like Gecko) draw.io/22.1.2 Chrome/114.0.5735.289 Electron/25.9.4 Safari/537.36" etag="5SoZ7a0y9akHY-7Neshf" version="22.1.2" type="device">
  <diagram name="Page-1" id="FBzMtnbwdy2c9p9Ad_RN">
    <mxGraphModel dx="2069" dy="819" grid="1" gridSize="10" guides="1" tooltips="1" connect="1" arrows="1" fold="1" page="1" pageScale="1" pageWidth="827" pageHeight="1169" math="1" shadow="0">
      <root>
        <mxCell id="0" />
        <mxCell id="1" parent="0" />
        <mxCell id="eMGEPUptXGxLgrZPaMwM-92" value="" style="rounded=1;whiteSpace=wrap;html=1;" parent="1" vertex="1">
          <mxGeometry x="-80" y="95" width="460" height="60" as="geometry" />
        </mxCell>
        <mxCell id="eMGEPUptXGxLgrZPaMwM-91" value="$$f: T \times U \rightarrow D, (t,u) \rightarrow d, \mathrm{with} \, D=\{1,2,3\}$$" style="text;html=1;align=center;verticalAlign=middle;resizable=0;points=[];autosize=1;strokeColor=none;fillColor=none;fontSize=20;" parent="1" vertex="1">
          <mxGeometry x="-205" y="105" width="710" height="40" as="geometry" />
        </mxCell>
        <mxCell id="eMGEPUptXGxLgrZPaMwM-43" value="Learning Objectives" style="shape=cylinder3;whiteSpace=wrap;html=1;boundedLbl=1;backgroundOutline=1;size=15;fontSize=20;" parent="1" vertex="1">
          <mxGeometry x="50" y="200" width="130" height="130" as="geometry" />
        </mxCell>
        <mxCell id="eMGEPUptXGxLgrZPaMwM-44" value="Exercise Collection" style="shape=cylinder3;whiteSpace=wrap;html=1;boundedLbl=1;backgroundOutline=1;size=15;fontSize=20;" parent="1" vertex="1">
          <mxGeometry x="270" y="330" width="130" height="130" as="geometry" />
        </mxCell>
        <mxCell id="eMGEPUptXGxLgrZPaMwM-55" value="" style="group" parent="1" vertex="1" connectable="0">
          <mxGeometry x="434" y="60" width="120" height="130" as="geometry" />
        </mxCell>
        <mxCell id="eMGEPUptXGxLgrZPaMwM-54" value="" style="shape=cylinder3;whiteSpace=wrap;html=1;boundedLbl=1;backgroundOutline=1;size=15;" parent="eMGEPUptXGxLgrZPaMwM-55" vertex="1">
          <mxGeometry width="120" height="130" as="geometry" />
        </mxCell>
        <mxCell id="eMGEPUptXGxLgrZPaMwM-51" value="" style="shape=image;verticalLabelPosition=bottom;labelBackgroundColor=default;verticalAlign=top;aspect=fixed;imageAspect=0;image=data:image/png,iVBORw0KGgoAAAANSUhEUgAAADgAAAA2CAYAAACSjFpuAAABYmlDQ1BJQ0MgcHJvZmlsZQAAKJFtkE1LAmEQx/+mIaUHoU4V5C2CLUzNQ53MTAKpRYtebuvjtgbr+rBuRKcI+gzRJ+jUxUMs3ewbBPYC0aFDEHUN7FCyzaOVWs0wzI8/M/PMM0BPQOFc9wAoGpaZSc0F1zc2g94n+DCMPpJHFVbmcVlOE+M7d1v9Bi6RaxNi1nlSPpiavXy2pemX61Ds7G99l/Xn1TKj/EERY9y0AFeUWN61uOBD4kGTliI+Fqy1+FRwrsXVZs1KJkF8RRxgBSVP/Egs5Tp0rYOL+g772kFs71eN1SzlIYoRzCOJNHkQWUQQJg+RlsIC3en/vmizL4ESOPZgYhsaCrBoQpwUDh0q8SIMMExCIhYzw4iIe/++Y1vbdwMzD/SUv60t3wOVCn1hqa2NvQEDJeCixhVT+bmuq+4pb0XCLfbZQO+R47yuAd5xoHHrOO+24zROAPcdUK1/AlkxZMToaQBsAAAABmJLR0QA/wD/AP+gvaeTAAAACXBIWXMAAC4jAAAuIwF4pT92AAAAB3RJTUUH5wsbCTcVxVYfRQAAABl0RVh0Q29tbWVudABDcmVhdGVkIHdpdGggR0lNUFeBDhcAAAi8SURBVGje7Zp7bGRVHcc/5947z85MO22nL2e77a7bBZZVcIGVAAvII0RMCBoRQSXRBP8yxsREISpEY2L8wzd/YJREDGoCqLgLWWMNsLvEXSC7Im6h7IvtPtpuXzOd9517z88/ptt2O+1Mp91uMekvuckk98w553t+r+/vdy6syZqsyWqKWukFcmNnxR4fJD82hJtJIlpj+UNYDU34Y3Hq2rrV/xXAzLkBmTi8n8n+g9hDAzipcdxiEURAZq+sUKaFGazDF2sn1L2V+iu2E+25Wn0gASaPvy2j+19k4uA+3Hxmwall1huZO8owCXZvpv2We4n0XH2Ht66xd9UBFlITG95/7oljiYMvY4hCo5c8lyhQohA0vuZ2uh56lGj3lWrVAA7u3ymDu35HMTlRMsGLKGKAaXlp2HYzmx58RF1ygMef+6WM7t2JuM6KBilRBsH13XQ98G0iHRvVJQF45Onvy/jrr6LQyMoHYpQCK9rKh7/yGJH1l6kVBfjuk49K4r//QsnKA5sL0tPQRM/XfkpdS3zRixs1meULT0iy78AlBwclF7cnxjn+1OM1/W/RAM+9tUdGev8MrrB6ImRPH+e933xXLirA9LmTcuqPP0GxeuA0kNaaEwWHZ/f9g9de+/uiNmMtZtDwK8/hpCdXR2cC79gOu8YmeT9fwBUQEfb9+seMTAxJLNqmlqXB9NigJN54ubZkjSDKwPZ4SQf9JEN1JMJBkqEAmYAfxzRRU4Gj2ly6s4u+1jgnCgUc0aA0KOHsuTO80PvX5WtwaPfTOPnsogHaHg+ZYADbY+Ea5lSYnjFuBSjt4i06hLJZfHZx4cgZiuDt2cpnMTh69izHB4cAmT6YXb1/Wb4PJt/eTzXXUwoc02I0GmYs2kDe70ObZmkjClCCmnpQgpgGeZ+P0Wg9iXCE+YKyqQzUhk0o08IyDT5//U0YhpplusLJ0yd55UCvLBng+JF/i5NLVwVnWxYjTRFsn3/RmVUpQaHI1vkYq29A5tira5qYDbHp6bpaW9jU3nHBuiLCn/72h6VrcHTP8+C6lU3S8jDWUI9WZrUIj5znqzLrHARsn0kiHEZPa0ih4p0oX2D67x4UV23oKpu2/0Tf0nwwmxz90Ts/+GJ5STNHJusCaNOoqjhlGAQijQTCTXgDAZRhoF0XO59hfPAM40YCy+sjXMgDCuND6+acjxCPxsqDYDrL4MhZaY91qJoAOqnEt5xcDqWMBTle0TIoerwVD0EEDNOktWszvnBTWdXhD4YJRmK8sXcvQ4k8Hw8KltdEeerK5loXjeL3eckX7BlTdl0GzpysXYNSLFDykoV9Lx0I4poLjylFDyHa3oU33IyInnesZVlcs+NGjh3uQ3s0+INgecvGhfwBmkMRThdGZwiAaA71vVk7QDeXrpintCjsKqYpQCgaI9TYiqpYCAse02LzR66cithq3rUNQ9Ecqef02OiFHPnksSVo0LUret90Cqjk4B6L+rZODNOaE1kWKm1MRKbsZj6AKPw+XxmJG0+O1w5QLYLpWRqcCttt37iFpo74VBqdrxszO/0LIoLrakzTQM2jQoXC5/eW+bhaSppQHv9MWF/I/PL5MhIgU6vWt8ZpbF+3QOmpZvOamd+iMJQxFdhU2SNAJpcrs6RoQ0PtGjT8waos2FMoYrpuiVtO7VNpCLd00HXF1YhaXP0hQDGX5z8HDrDRK3iCdYSu3AaWyewTdByXc4lEmY42dvYsRYPe6rkNKXctAzLjI4wMHEMXi1XbBgIUsln27O7l6OF3yZ04in30HSgWmWse6XyekUTyQgBKcdXlV9UO0BNpeFYF6qoz/vPZYLbb6yJnjhzmvddfZWLoFI5dRLSeyoFyntYgWpMaGeXVF3eCnWBrZyMeA7Tj4M5DEQfGz5EtFC40QdNkfXxj7SYaiMTu63/qMUkc3FsRoMe10VZwTlRSKAPsQobTfQfB9OCxvJg+L4ZRonTadXCKRex8nrZGLwofkWQKAxCtyR59l/B1N8w6SMWJoWEQfUGdFQzW0RZrV0vioi03fhqsyhVVKJ1HaQdk4U62uDZ2PkNucoLMxCiZxCi5yQTFXAZDHJSY+OwiftueJjr2ySPobGbGKlyXN/v7y6Lrlp6tSyfb0Z6PKrNKsPE5DpFMpnSyUqF5p+YPoILC0EWakimUnjWB4+IMDk4n/v7Bs/SfGpjjfwafu/v+5dWDkS3XYVQZFcwWaE5OYlSpPOanRA7RyRSu6DlBWkj1HQLtII7Lb3e/hKv1Be/XtXeyY/tty2tZxO/+MsobqNpc9RZsWiaSBLI50LKgyZ7fnIjCsh1iiUn8RQdzPu2nk4y9vo9f7d7F+8PDcyzE4J677l1+RR9sbFNN2+9cpDZcoqk0sYkEoVQab8Eumd2s4Km04CkWqU+laE4k8TpuxWsN98RRLh8e4NZIHev8PnxGiQRsWL+Bu2++5+J0tlMjA9L/s28gyQS6htahqNLdgmvOnKOpBcPVKCW13ddMufGkhmN5h2u++j22XXe7WrYGAcKxTtX1wDdRhiDG4rvaSsDQGk/RmX5KfipLuIwqrVuvhB3bb1oUuJo6281brldtd92/KBK+Mv3R0qEE4t1c/vAPV+ZuIv7Jh1XDNTdVb2iugBgK/K1x1n/hkZW5mzgvmx96XEWvvfWSglQY+Jrb6H7oUcLxTWpFAQL0fOk7quW2z4BSGEohK3ZnIWgU/qYWer7+82cjnZddmgvQ8zJyaI+cev4XFBPjK2OWHg+xHZ+i7Y4H7/CHlvZBwrLtLD08IMO9z5A49FpNLf7KLUaTQHcPHXc+QNOWG1bvI4TZkhk6Jqdf+j3p997CzUxW7AbMuwsBw+cn2LGO2C330bLtNnVx/HcFZOSNf8rI/p2kB/ohX6iY85TlwR9rJfKxTxC79nbqmuMfzA+B5pNcauxhJzn+ZDGVwElN4No50BrD68MKhvBEmvBEogQaOy593lmTNVmTNVmTRcj/ALTZl+9TOPHQAAAAAElFTkSuQmCC;rotation=90;" parent="eMGEPUptXGxLgrZPaMwM-55" vertex="1">
          <mxGeometry x="18" y="60" width="56" height="54" as="geometry" />
        </mxCell>
        <mxCell id="eMGEPUptXGxLgrZPaMwM-52" value="" style="shape=image;verticalLabelPosition=bottom;labelBackgroundColor=default;verticalAlign=top;aspect=fixed;imageAspect=0;image=data:image/png,iVBORw0KGgoAAAANSUhEUgAAADYAAAA1CAYAAAAK0RhzAAABYmlDQ1BJQ0MgcHJvZmlsZQAAKJFtkE1LAmEQx/+mIaUHoU4V5C2CLUzNQ53MTAKpRYtebuvjtgbr+rBuRKcI+gzRJ+jUxUMs3ewbBPYC0aFDEHUN7FCyzaOVWs0wzI8/M/PMM0BPQOFc9wAoGpaZSc0F1zc2g94n+DCMPpJHFVbmcVlOE+M7d1v9Bi6RaxNi1nlSPpiavXy2pemX61Ds7G99l/Xn1TKj/EERY9y0AFeUWN61uOBD4kGTliI+Fqy1+FRwrsXVZs1KJkF8RRxgBSVP/Egs5Tp0rYOL+g772kFs71eN1SzlIYoRzCOJNHkQWUQQJg+RlsIC3en/vmizL4ESOPZgYhsaCrBoQpwUDh0q8SIMMExCIhYzw4iIe/++Y1vbdwMzD/SUv60t3wOVCn1hqa2NvQEDJeCixhVT+bmuq+4pb0XCLfbZQO+R47yuAd5xoHHrOO+24zROAPcdUK1/AlkxZMToaQBsAAAABmJLR0QA/wD/AP+gvaeTAAAACXBIWXMAAC4jAAAuIwF4pT92AAAAB3RJTUUH5wsbCTgUNckzHAAAABl0RVh0Q29tbWVudABDcmVhdGVkIHdpdGggR0lNUFeBDhcAAAhgSURBVGje7ZlbbFzVFYa/tc+Zq2fs8Ti2Y3wlJNAkYC5NaSjQpk1QKVC1KrSV6AtVxVsfkFoJ0UqofUBCVVGlqkQqCFVFUFUNbSPaoopwqbmEhhSckAQ7cewQ33B8H49nxnMue/dhTADZnsw4tsODl3Skkeacs/e/1r/W+vc6sG7rtm6rabJaL86l+4x2UuDN4PtOYTGxUXYFdjCBClRNBaL1yc88sHx+co+X6jkwO/wKTqYXcfKgzJL3G6MIROuJNNxKJLmDYMVl8pkCls/0m9SZP+OletFeDtAIQgFSMWAf/1ZWEDtaR0XLXcRqb5FLCiyfHjAzQ8/jjL2L0XmMAbmYLWnBiBCKtxBt/SaxDV+UNQeWPveqme19Ds9LIT6gVphEogg33MKGLffLmgGbOvWkyQy9hrY0yldF82j50QMjYIeqSV77EKFo+flX1gNjx39t8mNHVwfMIlvzjSEQrKR624+JJLaVtdeSSTR+/FcmP7FWoAqFxxLQbprp7ifIpd43Kw5s+tQTJj9xvGiVW02Afn6C6ZNP4cyNP7piVJwdfd1Mnfj9/K0GUWuMSxe2qJUhHL+Cuht+KRcdsdxMj0mf+iOIIOoSgJrHpcWQcS3e6Z/kvZOdJdHGLhqtwX/ieXOIyCWJ0uBcBSdG6+md3sBYrpK8H6L6bB8Do+OmuW6DLAtYfua0GTvyyHzTNWueV12pBM+cuBljpMCr+S1Mzbq8cax/+VSc7HsafBej155+OT/Avp4dGOSj1P4EZuGN9/qYTGf3lA3MzU/uMbPDoKSMvBJACo7QgiDgC1mnhplsG1kniTaCGLlgLesYambOCS9xiyGddTnUdeZA2VTMjR86oN186T1LCznX5z9vj3GsJ0VmzqcqFqC+rp6tbZtp2FiNcjbiBsaIR/pQsjQFXSOcGL8MxBTkxxIOeOPoB+UXj9nBA2XllRh49KmTvPz2KGLkvBi2ZJiKipN87aZ27vn6TkTVQM4QDExiWxkC4i7gTP90jMl8VRFQ8ypoOlsesLnZs2b88EOgSq/tZ0dnOdg5gaKg0KtiEXbt3M6tO7ZRv6GaoGVhKQUG8l4tea8WhUc0OEQkPHLeEUYLr41sxlY2tq0I2TaWLUykZhdkjeN59A2Om01Ni1fHhRHzs5hChpQsWP/e8SF5x5BMxPnh3btpv6qNaDg4/47FI+9jkXZacMWiMjhcCLsK8IM77qAm2YptWeQcl8f+0rGojtAa3jkzWHrx8PMT5cAinfN46c0xEMP0TJbn/n2QQ0dP4bhuUTrPlxfy+SYyTh2OG8f1EyQCQiwSxPE0j+9/k6HR9BICSeg+c650KvruVOnSWAsfTubJZDQgaONzdniU3z37Am91dvGj793GxmTVBatgZq4VMw928vDLbNw8yeHxKKcHUkUPr5Mzc6VHTDu5siT0sZ5pXO1/KjqC0Nl1hp899gx9g+fKkKwGy2jGev7HptwRrmmtAqOXvDK5udIjJqY8lTE15TDv7o/fIYbqqkq+etP1dJ8dZcumNiKRUHEFrz2UWPPyzSBi0d4Upm+mDb3ElkIBU0a5t4OlCx8DtdWhRekylZqlt3+AXzxwH/GKYNHmYYxBtEJZhcoZiMQY1A3se3UYX+slczVUxFkLqKgCcdCl96+rt1RhWbIIuTRH3+/jp4/sZTaTXXxvRiGApVNYjKLMBJGaBhq27yGebMZoB+3l0Z6z4DK+SyxkSgdmh2sxJTZnA2ysCRGPBxb9D6Dv7Dl+89R+fH8xz2gwGQLeYWyvk6A5Tk3bNqxAmO1tdTzw3ZuxbFkiypqWxprSgYkdPz8VvGDElKEiavPw/VcRCqglwBs6Dh1n/4uvLzz66zSW9zYoF6UM2svx9L86ePalI/z19S4GRmbY2lK3KBWVgi9c0Vh6jlmB6iuwQ714XslaccfWJN+/vZk/vdCP53+6KRvAkgK4b932JeyAQUwa5Q+j9ADKmPPuFTFE5t7lxW497xIQrEX7mKUsWhuS+8oaDUx07TW5kYPlzQu18O6pKZ75xwBnhrK4riYUDnJ5UxN37dnJje1XErBzWO5/UdopqJtFHDfnWjzW+RUyTrTocomKML994NtSlgiONd9JbuwwGLeMnma44coE1/0kge8ZtK8RO4IJXo2yasCcw3Z6sHDQiiXoLgSDHo2xSXqmQhhjLbncNZtryz9ohmKtokLx80f0chq2UhAICqGIRTDgEDKd2O4rBPz3EMmii44ZDMoodjWeLkoW2xZ2Xb9leSfoWNPtoKTk0l9ssyJ+QS1jSjgOGVriGT6/sXfJarittZ4tjXWyLGCVjXeIFalZ4bl8yazmzrbT7GzsojKYxrK88yJAKZsvX9t0cXPF2ZEOk+p+snCkV5diWAqur8h6NqO5CD2pJMnGXdyze7dcFDCAie7HTXbkIGLUGo63F1ZcLRrbipO8/ueEY81SQroXt3jrdwiGkpeEkp9s8pYKU3XVfSWBKglYMNIgyese3qfsKOaSBKww/Yo276aibqeU81Rps77p42aqay8mP4MRxQqUywvSz1caSysqWr9B9aZ7pVx3lD7InDpmUqf+gDc3jjGa1Z18CyI2FS13kWi7e3U//AE42Q/NVPde3HQ/xvirA04LEkmQuPxeKupvkuUSeFk288HzZmbwb4jno41G1MUjNFpQAoHk1dS1P7j2H9c/snxm2GRHXiIz0gFOHtTCUXspp3ARARHsqq1Utt5JNNEuK1FyLtrys+cmcxNvVTsTR3AyQ2g/i/roK0mRhbVY2OFaQonPEd5wI9Fku6xchq60UnDGH3Wmux7MT3fh5cYRN4NnnILAFRusMHY4iR27nHBiO6H4pjX++LZu67Zu61bE/g8OA46tHKC54gAAAABJRU5ErkJggg==;rotation=90;" parent="eMGEPUptXGxLgrZPaMwM-55" vertex="1">
          <mxGeometry x="38" y="40" width="54" height="53" as="geometry" />
        </mxCell>
        <mxCell id="eMGEPUptXGxLgrZPaMwM-53" value="" style="shape=image;verticalLabelPosition=bottom;labelBackgroundColor=default;verticalAlign=top;aspect=fixed;imageAspect=0;image=data:image/png,iVBORw0KGgoAAAANSUhEUgAAAC4AAAAyCAYAAAAjrenXAAABYmlDQ1BJQ0MgcHJvZmlsZQAAKJFtkE1LAmEQx/+mIaUHoU4V5C2CLUzNQ53MTAKpRYtebuvjtgbr+rBuRKcI+gzRJ+jUxUMs3ewbBPYC0aFDEHUN7FCyzaOVWs0wzI8/M/PMM0BPQOFc9wAoGpaZSc0F1zc2g94n+DCMPpJHFVbmcVlOE+M7d1v9Bi6RaxNi1nlSPpiavXy2pemX61Ds7G99l/Xn1TKj/EERY9y0AFeUWN61uOBD4kGTliI+Fqy1+FRwrsXVZs1KJkF8RRxgBSVP/Egs5Tp0rYOL+g772kFs71eN1SzlIYoRzCOJNHkQWUQQJg+RlsIC3en/vmizL4ESOPZgYhsaCrBoQpwUDh0q8SIMMExCIhYzw4iIe/++Y1vbdwMzD/SUv60t3wOVCn1hqa2NvQEDJeCixhVT+bmuq+4pb0XCLfbZQO+R47yuAd5xoHHrOO+24zROAPcdUK1/AlkxZMToaQBsAAAABmJLR0QA/wD/AP+gvaeTAAAACXBIWXMAAC4jAAAuIwF4pT92AAAAB3RJTUUH5wsbCTg7nhgORQAAABl0RVh0Q29tbWVudABDcmVhdGVkIHdpdGggR0lNUFeBDhcAAAiNSURBVGje7Zl7cFT1Fcc/597dvLObhCQkAYQYHxWqqBXBOvIHQ9T6YCijVmtrteOAj9FOwal/tIO2g1Pt9KFV26laQeuo9UGHFqWOVFoEKlje+AiS8FbyIO/H7n38Tv/YzWZjNpuEEJx2PDN3Ntm793e/95zz/Z7fORe+tC/t/9tktAts371XN2/fzSf7j9DU3EJPj4PjOChKwA6QmRmksCCfSRPKuWDaWVw0feqicYWhp74Q4Ls/3qdr129hw+Yd1Dc0YoykWU1RBYmfy83J5sLzzmHu7BlUz54lpwT43n0H9fHlr7Bt50foqIOtlBTl84NF32HOpRfLmAF/6LFnde36LUSjEcA6ebkqQlVlBQ8uXsjpUybJSQP+Qc0+XfbYCg4d/hTVsSNbfn4ut9xwFTd/8xsyauDrNr2vjzz+HG3tXYjImCuFJcqCa6tZvPDbcsLA31r3nv78t8txHKePWWNuMSJfOedSHlhye9qbpkzWPXvr9Je/f47oKQUd86MAb/9zEw89vlxHBLzu4BG978FH6eyKnJL0SMFWjCpvv7OJlW++o8MG/sTyV2lv7/xiQCeZ47r87umXqP1kvw4JfOWadbrp/V0noZ6eeFEJGJdyt5NLOuu5svFjdv7h6aHJOf+2JdrQ2DJGvDMoEstjUVQNogbUQ3wPUY/Tom3kuZ0Y49ODwTHgCty19Kdcfs28flgDvX+s+PMb+tQLr418F6AGjIsYBzFeDIzxEfUTn6I+qI+oF/t9/DsxGvsfA0A9UI8AiiAoiiisWbVywG0TwF97Yy0jquN+FDvaSiDSjLjdWPGbB4I2ebnZRCMuPZFoXOQEiZ/XYUhiXBgT33y4Zzs7t23V6Rd+TfoBr6k9pAuXLBuet1URp4Os9n2I8RLLK0J2ZoA7bplHxfgioo7H62++y7Y9++K+O1FlB8/zef3lFwaS8/lXV+N6zhB4FdQn2HGQrNYaMP7nwCgFBSEqyopBLDIzM7j2iksoyMuJ57WkVCrpPRLnJOlI2nrs2N4feFNzy8MbN+8YhreVYPtBgj31/ULaWzZSXZ2Xk819d9/Id6+rpmpKRXyv0/+X5XYGlXYmkwgyQYKUS4ASsSkSixA2uWKRJTZeZyfHjh5J3DTQfLz5/kgkimXbaWEHuusJRI7HlUEH1Lu8vCwmjC8l+bQgZGUEOe+cSqaefRrvbf2INf/YguO68XALZ9tZhAFs6Vc9ezWol7oK1O/8oM/jLR3diGWlVQ0xPhndDYNHRZSeiEN9U/Og7AtYNpfN+CrXz5+DZVkIFiUlpVSe+RUIZCRtLTSmJkm5HACCCoc2buhbr7GlfcgqaXU3YBkHMwgqo4rxFM/zhiTa9LMnU7bwOurW76aj9ijtkQOEy8pxIhG6jzcgOnh1aq072Iepta19iHJmEYi2DgoaIDszi8rTSrlgWtWwGoeykkLKwvnkI3jRKG1HD5M7rhj89Nd2tzb3edyJurEwpekSRNOvGIk6HDhUjxM1VM+Z9TnxkyR/S2+IsANBTPwbVaWzqYkY8sG5ZpIiGrADFulbG2Xw+PVlpQC2ZZNXEEKNGVJabcvCSqJ5dihER+OnBNNdl5TSVig/f+giGcgaRPB6faox7g+jfgng+wbX8xL+yhlXAp6LbQXSXpsTDvV5vLgoPGTp8rLGE4y2xd0z0PvBYJBQfi4TKopj0ZPBarty4FADz/5pFR1tHYSys6kuPwON9tB85GDaFlyBUMWkPuBF4VyMMViDSaIImhXC787FdjpS4nFdl+PNreRkZsX4YrQfGY0aROHA4WM8+uRL9EQjKEJP1OGz7hqyBUQlIYmaSD9J+EBEmDJzRh/wglD+4KCTHjcamkx2cw0YN6U3RDRlm6eqOFGXlX9bx4ZNu/B9P7GNMkCzKBOxE2mmgK/gYvAUIqqxI2Bx/awk4BPKy+SOHy3TXR/Wpi37amURDVWS2b4/JfhU5joeT694ndoDn9HZ1T0gWoqwx+1hP4Kr4IvBB3xV/MQOMcag/Iw8yk4/Xfptsm5acDW2bQ3ZxpqMMJGCMzCBzIHeVQvHjeI4buzxFfbVHmbnh7V0pADdCz2ihuPq0Y5HlypRNXjx6qkJ8ErlGWel7oCuuOke7ejoGs5WGQUCXUfJiNQjvp+QQ8Fi4oTxXDrzXD79rJGNW3bheT5IGr4Oq3+2WPrwr5k9Z64MAP6z3zyja9ZuQGS447UYDHHasCNt2G4ngo8YPyaNqnH5N/GAW4l9yMiGREL5xMk8v3J16tbt9pvn8+6/t9HVHRlBa6toRgFeRhiv92EURA2qmmjZILZRi7VtJt7OueD7iHGwTKylC/ouFh4mqT81arhy3nyeX7k6detWUVosjz3zor78l7dHMJqQgZ8CGo+aEuwnbgNK/+fJbHzyvCilbhd5XjeZfpTiKZO5/Op5W9N2+fWNTc23L15W2NTSlrZSnpJhnIJlW/zqJ/cw6+LpknauMr6kuGjpkoWgsfHBFwgbS5Sr5n49JeiUk6wZ50+VxXfeTCBgj0IHRulqhPPPPZMf3/t9GdHQ8/prqmXB1dXYQ7RzYzXOmnrWFB64766tI57WAvxw4Y1y44IrsJBTlzYCVZUTeWTpvYtKxxVcNKo3EqvXbtRfPLEi3pbJGOFVEIvLZk7n/ntvrSoMhepG/SoFYOdHe/XJZ19lz8d1scJykrN/XGGY733rWq67Zs7JeweUbM+98oau+vu/ONbQkHJoMzIz5OTmMvP8adx56wImlpfJCLNq5PbXt9brH19cRWNzS9/gMy1lNJYOaqE2ZAQCzJ09g7tvu6GqMByuO0E6nLjV1B3QHXtq2bD5P9TUHqajowuj2m9RVSU7K4tJE0uZecE0Lr7wPKomVywaV1jw1Ch5fPLsyLF6bW3rTExpg0GbcH4O4fxQdVFBeC1f2v+w/RfKA8fnHjIIdAAAAABJRU5ErkJggg==;rotation=90;" parent="eMGEPUptXGxLgrZPaMwM-55" vertex="1">
          <mxGeometry x="42" y="70" width="46" height="50" as="geometry" />
        </mxCell>
        <mxCell id="eMGEPUptXGxLgrZPaMwM-56" value="" style="endArrow=classic;html=1;rounded=0;" parent="1" edge="1">
          <mxGeometry width="50" height="50" relative="1" as="geometry">
            <mxPoint x="500" y="192" as="sourcePoint" />
            <mxPoint x="550" y="232" as="targetPoint" />
            <Array as="points">
              <mxPoint x="500" y="232" />
            </Array>
          </mxGeometry>
        </mxCell>
        <mxCell id="eMGEPUptXGxLgrZPaMwM-57" value="" style="endArrow=classic;html=1;rounded=0;exitX=1;exitY=0.5;exitDx=0;exitDy=0;exitPerimeter=0;" parent="1" source="eMGEPUptXGxLgrZPaMwM-43" edge="1">
          <mxGeometry width="50" height="50" relative="1" as="geometry">
            <mxPoint x="590" y="440" as="sourcePoint" />
            <mxPoint x="550" y="265" as="targetPoint" />
          </mxGeometry>
        </mxCell>
        <mxCell id="eMGEPUptXGxLgrZPaMwM-58" value="" style="endArrow=classic;html=1;rounded=0;exitX=0.5;exitY=0;exitDx=0;exitDy=0;exitPerimeter=0;" parent="1" source="eMGEPUptXGxLgrZPaMwM-44" edge="1">
          <mxGeometry width="50" height="50" relative="1" as="geometry">
            <mxPoint x="590" y="440" as="sourcePoint" />
            <mxPoint x="550" y="280" as="targetPoint" />
            <Array as="points">
              <mxPoint x="335" y="280" />
            </Array>
          </mxGeometry>
        </mxCell>
        <mxCell id="eMGEPUptXGxLgrZPaMwM-59" value="" style="rounded=1;whiteSpace=wrap;html=1;fontSize=20;" parent="1" vertex="1">
          <mxGeometry x="560" y="212" width="170" height="90" as="geometry" />
        </mxCell>
        <mxCell id="eMGEPUptXGxLgrZPaMwM-60" value="" style="shape=image;html=1;verticalLabelPosition=bottom;verticalAlign=top;imageAspect=1;aspect=fixed;image=img/clipart/Gear_128x128.png" parent="1" vertex="1">
          <mxGeometry x="580" y="226.5" width="52" height="61" as="geometry" />
        </mxCell>
        <mxCell id="eMGEPUptXGxLgrZPaMwM-61" value="Model" style="text;html=1;align=center;verticalAlign=middle;resizable=0;points=[];autosize=1;strokeColor=none;fillColor=none;fontSize=20;" parent="1" vertex="1">
          <mxGeometry x="640" y="237" width="80" height="40" as="geometry" />
        </mxCell>
        <mxCell id="eMGEPUptXGxLgrZPaMwM-63" value="" style="endArrow=classic;html=1;rounded=0;" parent="1" edge="1">
          <mxGeometry width="50" height="50" relative="1" as="geometry">
            <mxPoint x="750" y="256.5" as="sourcePoint" />
            <mxPoint x="800" y="256.5" as="targetPoint" />
          </mxGeometry>
        </mxCell>
        <mxCell id="eMGEPUptXGxLgrZPaMwM-65" value="$$U, H(u)$$" style="text;html=1;strokeColor=none;fillColor=none;align=center;verticalAlign=middle;whiteSpace=wrap;rounded=0;fontSize=20;" parent="1" vertex="1">
          <mxGeometry x="572" y="110" width="60" height="30" as="geometry" />
        </mxCell>
        <mxCell id="eMGEPUptXGxLgrZPaMwM-66" value="$$T$$" style="text;html=1;strokeColor=none;fillColor=none;align=center;verticalAlign=middle;whiteSpace=wrap;rounded=0;fontSize=20;" parent="1" vertex="1">
          <mxGeometry x="170" y="234.5" width="60" height="30" as="geometry" />
        </mxCell>
        <mxCell id="eMGEPUptXGxLgrZPaMwM-67" value="$$\forall x \in X \; \exists t \in T: (x, t) \in R_{t,x} $$" style="text;html=1;strokeColor=none;fillColor=none;align=center;verticalAlign=middle;whiteSpace=wrap;rounded=0;fontSize=20;" parent="1" vertex="1">
          <mxGeometry x="155" y="460" width="360" height="30" as="geometry" />
        </mxCell>
        <mxCell id="eMGEPUptXGxLgrZPaMwM-71" value="" style="edgeStyle=entityRelationEdgeStyle;fontSize=12;html=1;endArrow=ERoneToMany;rounded=0;exitX=1;exitY=0;exitDx=0;exitDy=90;exitPerimeter=0;entryX=0;entryY=0;entryDx=0;entryDy=90;entryPerimeter=0;strokeWidth=2;endSize=18;" parent="1" source="eMGEPUptXGxLgrZPaMwM-43" target="eMGEPUptXGxLgrZPaMwM-44" edge="1">
          <mxGeometry width="100" height="100" relative="1" as="geometry">
            <mxPoint x="560" y="460" as="sourcePoint" />
            <mxPoint x="660" y="360" as="targetPoint" />
          </mxGeometry>
        </mxCell>
        <mxCell id="eMGEPUptXGxLgrZPaMwM-72" value="" style="shape=table;startSize=0;container=1;collapsible=0;childLayout=tableLayout;fontSize=20;" parent="1" vertex="1">
          <mxGeometry x="810" y="127" width="120" height="265" as="geometry" />
        </mxCell>
        <mxCell id="eMGEPUptXGxLgrZPaMwM-73" value="" style="shape=tableRow;horizontal=0;startSize=0;swimlaneHead=0;swimlaneBody=0;strokeColor=inherit;top=0;left=0;bottom=0;right=0;collapsible=0;dropTarget=0;fillColor=none;points=[[0,0.5],[1,0.5]];portConstraint=eastwest;" parent="eMGEPUptXGxLgrZPaMwM-72" vertex="1">
          <mxGeometry width="120" height="53" as="geometry" />
        </mxCell>
        <mxCell id="eMGEPUptXGxLgrZPaMwM-74" value="1." style="shape=partialRectangle;html=1;whiteSpace=wrap;connectable=0;strokeColor=inherit;overflow=hidden;fillColor=none;top=0;left=0;bottom=0;right=0;pointerEvents=1;fontSize=20;" parent="eMGEPUptXGxLgrZPaMwM-73" vertex="1">
          <mxGeometry width="60" height="53" as="geometry">
            <mxRectangle width="60" height="53" as="alternateBounds" />
          </mxGeometry>
        </mxCell>
        <mxCell id="eMGEPUptXGxLgrZPaMwM-75" value="$$x_1$$" style="shape=partialRectangle;html=1;whiteSpace=wrap;connectable=0;strokeColor=inherit;overflow=hidden;fillColor=none;top=0;left=0;bottom=0;right=0;pointerEvents=1;fontSize=20;" parent="eMGEPUptXGxLgrZPaMwM-73" vertex="1">
          <mxGeometry x="60" width="60" height="53" as="geometry">
            <mxRectangle width="60" height="53" as="alternateBounds" />
          </mxGeometry>
        </mxCell>
        <mxCell id="eMGEPUptXGxLgrZPaMwM-76" value="" style="shape=tableRow;horizontal=0;startSize=0;swimlaneHead=0;swimlaneBody=0;strokeColor=inherit;top=0;left=0;bottom=0;right=0;collapsible=0;dropTarget=0;fillColor=none;points=[[0,0.5],[1,0.5]];portConstraint=eastwest;" parent="eMGEPUptXGxLgrZPaMwM-72" vertex="1">
          <mxGeometry y="53" width="120" height="53" as="geometry" />
        </mxCell>
        <mxCell id="eMGEPUptXGxLgrZPaMwM-77" value="2." style="shape=partialRectangle;html=1;whiteSpace=wrap;connectable=0;strokeColor=inherit;overflow=hidden;fillColor=none;top=0;left=0;bottom=0;right=0;pointerEvents=1;fontSize=20;" parent="eMGEPUptXGxLgrZPaMwM-76" vertex="1">
          <mxGeometry width="60" height="53" as="geometry">
            <mxRectangle width="60" height="53" as="alternateBounds" />
          </mxGeometry>
        </mxCell>
        <mxCell id="eMGEPUptXGxLgrZPaMwM-78" value="$$x_2$$" style="shape=partialRectangle;html=1;whiteSpace=wrap;connectable=0;strokeColor=inherit;overflow=hidden;fillColor=none;top=0;left=0;bottom=0;right=0;pointerEvents=1;fontSize=20;" parent="eMGEPUptXGxLgrZPaMwM-76" vertex="1">
          <mxGeometry x="60" width="60" height="53" as="geometry">
            <mxRectangle width="60" height="53" as="alternateBounds" />
          </mxGeometry>
        </mxCell>
        <mxCell id="eMGEPUptXGxLgrZPaMwM-79" value="" style="shape=tableRow;horizontal=0;startSize=0;swimlaneHead=0;swimlaneBody=0;strokeColor=inherit;top=0;left=0;bottom=0;right=0;collapsible=0;dropTarget=0;fillColor=none;points=[[0,0.5],[1,0.5]];portConstraint=eastwest;" parent="eMGEPUptXGxLgrZPaMwM-72" vertex="1">
          <mxGeometry y="106" width="120" height="53" as="geometry" />
        </mxCell>
        <mxCell id="eMGEPUptXGxLgrZPaMwM-80" value="3." style="shape=partialRectangle;html=1;whiteSpace=wrap;connectable=0;strokeColor=inherit;overflow=hidden;fillColor=none;top=0;left=0;bottom=0;right=0;pointerEvents=1;fontSize=20;" parent="eMGEPUptXGxLgrZPaMwM-79" vertex="1">
          <mxGeometry width="60" height="53" as="geometry">
            <mxRectangle width="60" height="53" as="alternateBounds" />
          </mxGeometry>
        </mxCell>
        <mxCell id="eMGEPUptXGxLgrZPaMwM-81" value="$$x_3$$" style="shape=partialRectangle;html=1;whiteSpace=wrap;connectable=0;strokeColor=inherit;overflow=hidden;fillColor=none;top=0;left=0;bottom=0;right=0;pointerEvents=1;fontSize=20;" parent="eMGEPUptXGxLgrZPaMwM-79" vertex="1">
          <mxGeometry x="60" width="60" height="53" as="geometry">
            <mxRectangle width="60" height="53" as="alternateBounds" />
          </mxGeometry>
        </mxCell>
        <mxCell id="eMGEPUptXGxLgrZPaMwM-82" value="" style="shape=tableRow;horizontal=0;startSize=0;swimlaneHead=0;swimlaneBody=0;strokeColor=inherit;top=0;left=0;bottom=0;right=0;collapsible=0;dropTarget=0;fillColor=none;points=[[0,0.5],[1,0.5]];portConstraint=eastwest;" parent="eMGEPUptXGxLgrZPaMwM-72" vertex="1">
          <mxGeometry y="159" width="120" height="53" as="geometry" />
        </mxCell>
        <mxCell id="eMGEPUptXGxLgrZPaMwM-83" value="4." style="shape=partialRectangle;html=1;whiteSpace=wrap;connectable=0;strokeColor=inherit;overflow=hidden;fillColor=none;top=0;left=0;bottom=0;right=0;pointerEvents=1;fontSize=20;" parent="eMGEPUptXGxLgrZPaMwM-82" vertex="1">
          <mxGeometry width="60" height="53" as="geometry">
            <mxRectangle width="60" height="53" as="alternateBounds" />
          </mxGeometry>
        </mxCell>
        <mxCell id="eMGEPUptXGxLgrZPaMwM-84" value="$$x_4$$" style="shape=partialRectangle;html=1;whiteSpace=wrap;connectable=0;strokeColor=inherit;overflow=hidden;fillColor=none;top=0;left=0;bottom=0;right=0;pointerEvents=1;fontSize=20;" parent="eMGEPUptXGxLgrZPaMwM-82" vertex="1">
          <mxGeometry x="60" width="60" height="53" as="geometry">
            <mxRectangle width="60" height="53" as="alternateBounds" />
          </mxGeometry>
        </mxCell>
        <mxCell id="eMGEPUptXGxLgrZPaMwM-85" value="" style="shape=tableRow;horizontal=0;startSize=0;swimlaneHead=0;swimlaneBody=0;strokeColor=inherit;top=0;left=0;bottom=0;right=0;collapsible=0;dropTarget=0;fillColor=none;points=[[0,0.5],[1,0.5]];portConstraint=eastwest;" parent="eMGEPUptXGxLgrZPaMwM-72" vertex="1">
          <mxGeometry y="212" width="120" height="53" as="geometry" />
        </mxCell>
        <mxCell id="eMGEPUptXGxLgrZPaMwM-86" value="5." style="shape=partialRectangle;html=1;whiteSpace=wrap;connectable=0;strokeColor=inherit;overflow=hidden;fillColor=none;top=0;left=0;bottom=0;right=0;pointerEvents=1;fontSize=20;" parent="eMGEPUptXGxLgrZPaMwM-85" vertex="1">
          <mxGeometry width="60" height="53" as="geometry">
            <mxRectangle width="60" height="53" as="alternateBounds" />
          </mxGeometry>
        </mxCell>
        <mxCell id="eMGEPUptXGxLgrZPaMwM-87" value="$$x_5$$" style="shape=partialRectangle;html=1;whiteSpace=wrap;connectable=0;strokeColor=inherit;overflow=hidden;fillColor=none;top=0;left=0;bottom=0;right=0;pointerEvents=1;fontSize=20;" parent="eMGEPUptXGxLgrZPaMwM-85" vertex="1">
          <mxGeometry x="60" width="60" height="53" as="geometry">
            <mxRectangle width="60" height="53" as="alternateBounds" />
          </mxGeometry>
        </mxCell>
        <mxCell id="eMGEPUptXGxLgrZPaMwM-88" value="$$R(u)$$" style="text;html=1;align=center;verticalAlign=middle;resizable=1;points=[];autosize=0;strokeColor=none;fillColor=none;fontSize=20;rotation=0;imageWidth=24;container=0;" parent="1" vertex="1">
          <mxGeometry x="690" y="90" width="90" height="40" relative="1" as="geometry">
            <mxPoint x="825" y="87" as="offset" />
          </mxGeometry>
        </mxCell>
        <mxCell id="eMGEPUptXGxLgrZPaMwM-89" value="$$R_{t,x}$$" style="text;html=1;align=center;verticalAlign=middle;resizable=0;points=[];autosize=1;strokeColor=none;fillColor=none;fontSize=20;" parent="1" vertex="1">
          <mxGeometry x="180" y="300" width="130" height="40" as="geometry" />
        </mxCell>
        <mxCell id="eMGEPUptXGxLgrZPaMwM-93" value="" style="endArrow=classic;html=1;rounded=0;" parent="1" edge="1">
          <mxGeometry width="50" height="50" relative="1" as="geometry">
            <mxPoint x="120" y="190" as="sourcePoint" />
            <mxPoint x="200" y="160" as="targetPoint" />
            <Array as="points">
              <mxPoint x="120" y="180" />
              <mxPoint x="200" y="180" />
            </Array>
          </mxGeometry>
        </mxCell>
        <mxCell id="eMGEPUptXGxLgrZPaMwM-94" value="" style="endArrow=classic;html=1;rounded=0;" parent="1" edge="1">
          <mxGeometry width="50" height="50" relative="1" as="geometry">
            <mxPoint x="420" y="130" as="sourcePoint" />
            <mxPoint x="390" y="130" as="targetPoint" />
          </mxGeometry>
        </mxCell>
        <mxCell id="eMGEPUptXGxLgrZPaMwM-95" value="" style="endArrow=classic;html=1;rounded=0;" parent="1" edge="1">
          <mxGeometry width="50" height="50" relative="1" as="geometry">
            <mxPoint x="280" y="170" as="sourcePoint" />
            <mxPoint x="550" y="250" as="targetPoint" />
            <Array as="points">
              <mxPoint x="280" y="250" />
            </Array>
          </mxGeometry>
        </mxCell>
        <mxCell id="lGFjsgCIEbZjp5lapr0d-1" value="$$X$$" style="text;html=1;align=center;verticalAlign=middle;resizable=0;points=[];autosize=1;strokeColor=none;fillColor=none;fontSize=20;" vertex="1" parent="1">
          <mxGeometry x="380" y="380" width="80" height="40" as="geometry" />
        </mxCell>
      </root>
    </mxGraphModel>
  </diagram>
</mxfile>
